<svg width="500" height="500" viewBox="0 0 500 500" fill="none" xmlns="http://www.w3.org/2000/svg">
<path d="M500 382.4H0V382.65H500V382.4Z" fill="#EBEBEB"/>
<path d="M78.46 391.92H52.46V392.17H78.46V391.92Z" fill="#EBEBEB"/>
<path d="M200.43 389.21H146.33V389.46H200.43V389.21Z" fill="#EBEBEB"/>
<path d="M105.78 401.21H79.46V401.46H105.78V401.21Z" fill="#EBEBEB"/>
<path d="M449.9 399.53H430.67V399.78H449.9V399.53Z" fill="#EBEBEB"/>
<path d="M421.76 399.53H391.47V399.78H421.76V399.53Z" fill="#EBEBEB"/>
<path d="M312.79 395.31H258.23V395.56H312.79V395.31Z" fill="#EBEBEB"/>
<path d="M237 337.8H43.91C42.3973 337.797 40.9475 337.195 39.8789 336.124C38.8102 335.053 38.21 333.603 38.21 332.09V60.66C38.2232 59.156 38.8292 57.718 39.8964 56.6582C40.9637 55.5985 42.406 55.0026 43.91 55H237C238.514 55 239.967 55.6016 241.038 56.6724C242.108 57.7433 242.71 59.1956 242.71 60.71V332.09C242.71 333.604 242.108 335.057 241.038 336.128C239.967 337.198 238.514 337.8 237 337.8ZM43.91 55.2C42.4636 55.2026 41.0774 55.7791 40.0557 56.8027C39.0339 57.8264 38.46 59.2136 38.46 60.66V332.09C38.46 333.536 39.0339 334.924 40.0557 335.947C41.0774 336.971 42.4636 337.547 43.91 337.55H237C238.447 337.547 239.835 336.971 240.858 335.948C241.881 334.924 242.457 333.537 242.46 332.09V60.66C242.457 59.2127 241.881 57.8255 240.858 56.8021C239.835 55.7787 238.447 55.2026 237 55.2H43.91Z" fill="#EBEBEB"/>
<path d="M453.31 337.8H260.21C258.696 337.797 257.246 337.195 256.175 336.125C255.105 335.054 254.503 333.604 254.5 332.09V60.66C254.516 59.1551 255.124 57.7171 256.193 56.6576C257.262 55.5981 258.705 55.0025 260.21 55H453.31C454.812 55.0052 456.252 55.6022 457.317 56.6617C458.382 57.7212 458.987 59.1578 459 60.66V332.09C459 333.601 458.401 335.05 457.335 336.121C456.268 337.191 454.821 337.795 453.31 337.8ZM260.21 55.2C258.763 55.2026 257.375 55.7787 256.352 56.8021C255.329 57.8255 254.753 59.2127 254.75 60.66V332.09C254.753 333.537 255.329 334.924 256.352 335.948C257.375 336.971 258.763 337.547 260.21 337.55H453.31C454.757 337.547 456.145 336.971 457.168 335.948C458.191 334.924 458.767 333.537 458.77 332.09V60.66C458.767 59.2127 458.191 57.8255 457.168 56.8021C456.145 55.7787 454.757 55.2026 453.31 55.2H260.21Z" fill="#EBEBEB"/>
<path d="M441.25 277.34H413.75V382.4H441.25V277.34Z" fill="#E6E6E6"/>
<path d="M436.03 382.4H441.25V367.54H430.55L436.03 382.4Z" fill="#F0F0F0"/>
<path d="M284.33 277.34H256.83V382.4H284.33V277.34Z" fill="#E6E6E6"/>
<path d="M441.25 277.34H279.77V373.28H441.25V277.34Z" fill="#F0F0F0"/>
<path d="M285.14 282.2V354.7H333.01V282.2H285.14Z" fill="#E6E6E6"/>
<path d="M313.81 286.36H304.34C302.305 286.361 300.29 285.947 298.42 285.144C296.549 284.341 294.862 283.166 293.46 281.69H324.69C323.288 283.166 321.601 284.341 319.73 285.144C317.86 285.947 315.845 286.361 313.81 286.36Z" fill="#F0F0F0"/>
<path d="M336.58 282.21V354.71H384.45V282.21H336.58Z" fill="#E6E6E6"/>
<path d="M365.73 286.36H356.26C354.226 286.359 352.214 285.945 350.345 285.142C348.477 284.339 346.791 283.165 345.39 281.69H376.61C375.208 283.166 373.521 284.341 371.65 285.144C369.78 285.947 367.766 286.361 365.73 286.36Z" fill="#F0F0F0"/>
<path d="M388.01 282.21V354.71H435.88V282.21H388.01Z" fill="#E6E6E6"/>
<path d="M417.17 286.36H407.7C405.665 286.361 403.65 285.947 401.78 285.144C399.909 284.341 398.222 283.166 396.82 281.69H428C426.604 283.16 424.925 284.331 423.063 285.134C421.202 285.937 419.197 286.354 417.17 286.36Z" fill="#F0F0F0"/>
<path d="M284.99 382.4H279.77V367.54H290.47L284.99 382.4Z" fill="#F0F0F0"/>
<path d="M219.76 73.99H68.26V215.89H219.76V73.99Z" fill="#E6E6E6"/>
<path d="M225.2 73.99H70.8V215.89H225.2V73.99Z" fill="#F0F0F0"/>
<path d="M219.76 215.89H68.26V226H219.76V215.89Z" fill="#E6E6E6"/>
<path d="M234.26 215.89H79.86V226H234.26V215.89Z" fill="#F0F0F0"/>
<path d="M217.59 208.27V81.61L78.42 81.61V208.27H217.59Z" fill="#FAFAFA"/>
<path d="M92.99 208.27L137.7 81.61H158.8L114.09 208.27H92.99Z" fill="white"/>
<path d="M81.94 165.3C82.0859 165.3 82.2258 165.242 82.3289 165.139C82.432 165.036 82.49 164.896 82.49 164.75V86.56C82.4874 86.4159 82.4283 86.2785 82.3254 86.1775C82.2225 86.0765 82.0841 86.02 81.94 86.02C81.7968 86.02 81.6594 86.0769 81.5582 86.1782C81.4569 86.2794 81.4 86.4168 81.4 86.56V164.75C81.4 164.894 81.4565 165.033 81.5575 165.135C81.6585 165.238 81.7959 165.297 81.94 165.3Z" fill="#F0F0F0"/>
<path d="M118.63 208.27L163.34 81.61H171.56L126.86 208.27H118.63Z" fill="white"/>
<path d="M217.58 208.27V81.61H216.61V208.27H217.58Z" fill="#E6E6E6"/>
<path opacity="0.5" d="M227 94.74H75.5L74.8 84.57H226.3L227 94.74Z" fill="#E6E6E6"/>
<path opacity="0.5" d="M227 102.18H75.5L74.8 92.01H226.3L227 102.18Z" fill="#E6E6E6"/>
<path opacity="0.5" d="M227 111.11H75.5L74.8 100.94H226.3L227 111.11Z" fill="#E6E6E6"/>
<path opacity="0.5" d="M227 121.05H75.5L74.8 110.88H226.3L227 121.05Z" fill="#E6E6E6"/>
<path opacity="0.5" d="M227 132.96H75.5L74.8 122.79H226.3L227 132.96Z" fill="#E6E6E6"/>
<path opacity="0.5" d="M227 146.35H75.5L74.8 136.18H226.3L227 146.35Z" fill="#E6E6E6"/>
<path d="M228.63 288.2H183.79V382.4H228.63V288.2Z" fill="#E6E6E6"/>
<path d="M224.12 382.4H228.63V369.57H219.39L224.12 382.4Z" fill="#F0F0F0"/>
<path d="M118.33 288.2H73.49V382.4H118.33V288.2Z" fill="#E6E6E6"/>
<path d="M228.62 288.2H114.39V374.53H228.62V288.2Z" fill="#F0F0F0"/>
<path d="M225.13 292.02H117.89V315.7H225.13V292.02Z" fill="#E6E6E6"/>
<path d="M176.57 299.38H166.44C162.04 299.38 157.84 296.46 154.81 291.3H188.21C185.18 296.46 181 299.38 176.57 299.38Z" fill="#F0F0F0"/>
<path d="M118.9 382.4H114.39V369.57H123.63L118.9 382.4Z" fill="#F0F0F0"/>
<path d="M225.13 319.52H117.89V343.2H225.13V319.52Z" fill="#E6E6E6"/>
<path d="M176.57 326.88H166.44C162.04 326.88 157.84 323.96 154.81 318.8H188.21C185.18 324 181 326.88 176.57 326.88Z" fill="#F0F0F0"/>
<path d="M225.13 347.02H117.89V370.7H225.13V347.02Z" fill="#E6E6E6"/>
<path d="M176.57 354.38H166.44C162.04 354.38 157.84 351.46 154.81 346.3H188.21C185.18 351.46 181 354.38 176.57 354.38Z" fill="#F0F0F0"/>
<path d="M409.67 93.47H322.61V209.91H409.67V93.47Z" fill="#E6E6E6"/>
<path d="M415.33 93.47H323.83V209.91H415.33V93.47Z" fill="#F0F0F0"/>
<path d="M402.66 197.24V106.13H336.49V197.24H402.66Z" fill="white"/>
<path d="M402.66 197.24V106.13H401.67V197.24H402.66Z" fill="#E6E6E6"/>
<path d="M370.81 132.42H351C350.805 132.42 350.619 132.497 350.48 132.633C350.342 132.77 350.263 132.955 350.26 133.15V152.92C350.276 157.689 352.177 162.258 355.55 165.63C358.922 169.003 363.491 170.904 368.26 170.92H388.03C388.226 170.92 388.414 170.842 388.553 170.703C388.692 170.564 388.77 170.376 388.77 170.18V150.45C388.765 145.682 386.873 141.109 383.508 137.731C380.143 134.353 375.578 132.444 370.81 132.42ZM368.34 169.49C363.948 169.485 359.737 167.737 356.633 164.63C353.528 161.524 351.783 157.312 351.78 152.92V133.92H370.78C375.171 133.925 379.381 135.671 382.487 138.776C385.593 141.88 387.342 146.089 387.35 150.48L368.34 169.49Z" fill="#F0F0F0"/>
<path d="M250 427.56C357.082 427.56 443.89 422.492 443.89 416.24C443.89 409.988 357.082 404.92 250 404.92C142.918 404.92 56.11 409.988 56.11 416.24C56.11 422.492 142.918 427.56 250 427.56Z" fill="#F5F5F5"/>
<path d="M246.59 88C245.68 82.48 249.41 78 254.93 78H214.6C209.08 78 205.35 82.47 206.26 88H246.59Z" fill="#92E3A9"/>
<path opacity="0.3" d="M246.59 88C245.68 82.48 249.41 78 254.93 78H214.6C209.08 78 205.35 82.47 206.26 88H246.59Z" fill="black"/>
<path d="M254.93 78H214.6C217.391 78.0927 220.067 79.1339 222.187 80.9518C224.306 82.7697 225.743 85.2558 226.26 88L235.09 141.32C235.609 144.063 237.046 146.548 239.165 148.366C241.285 150.184 243.96 151.225 246.75 151.32H267.09C272.61 151.32 276.34 146.84 275.43 141.32L266.59 88C266.073 85.2558 264.636 82.7697 262.517 80.9518C260.397 79.1339 257.721 78.0927 254.93 78Z" fill="#92E3A9"/>
<path d="M255.09 141.35C256 146.87 252.27 151.35 246.75 151.35H287.08C288.335 151.392 289.584 151.148 290.73 150.635C291.876 150.121 292.89 149.353 293.695 148.389C294.499 147.424 295.072 146.289 295.372 145.069C295.671 143.849 295.687 142.577 295.42 141.35H255.09Z" fill="#92E3A9"/>
<path opacity="0.3" d="M255.09 141.35C256 146.87 252.27 151.35 246.75 151.35H287.08C288.335 151.392 289.584 151.148 290.73 150.635C291.876 150.121 292.89 149.353 293.695 148.389C294.499 147.424 295.072 146.289 295.372 145.069C295.671 143.849 295.687 142.577 295.42 141.35H255.09Z" fill="black"/>
<path d="M261.58 92.63H232.79C232.623 92.6239 232.462 92.5613 232.335 92.4523C232.208 92.3433 232.122 92.1945 232.09 92.03C232.073 91.9563 232.073 91.8796 232.091 91.806C232.108 91.7324 232.143 91.6639 232.191 91.6058C232.239 91.5477 232.301 91.5015 232.37 91.4711C232.439 91.4406 232.514 91.4265 232.59 91.43H261.38C261.547 91.436 261.708 91.4987 261.835 91.6077C261.962 91.7166 262.048 91.8655 262.08 92.03C262.097 92.1037 262.097 92.1804 262.079 92.2539C262.062 92.3275 262.028 92.3961 261.979 92.4542C261.931 92.5123 261.869 92.5584 261.8 92.5889C261.731 92.6194 261.656 92.6335 261.58 92.63Z" fill="white"/>
<path d="M245.63 96.79H233.48C233.313 96.784 233.152 96.7213 233.025 96.6123C232.898 96.5034 232.812 96.3545 232.78 96.19C232.763 96.1163 232.763 96.0397 232.781 95.9661C232.798 95.8925 232.833 95.8239 232.881 95.7658C232.929 95.7077 232.991 95.6616 233.06 95.6311C233.129 95.6006 233.204 95.5865 233.28 95.59H245.43C245.597 95.596 245.758 95.6587 245.885 95.7677C246.012 95.8767 246.098 96.0255 246.13 96.19C246.145 96.2635 246.143 96.3394 246.125 96.4122C246.107 96.4849 246.072 96.5526 246.024 96.6102C245.976 96.6678 245.916 96.7139 245.848 96.745C245.779 96.7761 245.705 96.7915 245.63 96.79Z" fill="white"/>
<path d="M256.87 96.79H248.47C248.304 96.7835 248.145 96.7205 248.019 96.6114C247.894 96.5023 247.809 96.3536 247.78 96.19C247.763 96.1172 247.763 96.0414 247.78 95.9686C247.797 95.8958 247.831 95.8278 247.878 95.7699C247.925 95.712 247.985 95.6657 248.053 95.6345C248.121 95.6033 248.195 95.5881 248.27 95.59H256.67C256.836 95.5965 256.995 95.6595 257.121 95.7686C257.246 95.8777 257.33 96.0264 257.36 96.19C257.377 96.2629 257.377 96.3386 257.36 96.4114C257.343 96.4842 257.309 96.5522 257.262 96.6101C257.215 96.668 257.155 96.7143 257.087 96.7455C257.019 96.7767 256.945 96.7919 256.87 96.79Z" fill="white"/>
<path d="M263 101H234.17C234.004 100.996 233.843 100.936 233.716 100.828C233.589 100.721 233.502 100.573 233.47 100.41C233.453 100.336 233.453 100.26 233.471 100.186C233.488 100.112 233.523 100.044 233.571 99.9858C233.619 99.9277 233.681 99.8816 233.75 99.8511C233.819 99.8206 233.894 99.8065 233.97 99.81H262.76C262.927 99.8161 263.088 99.8787 263.215 99.9877C263.342 100.097 263.428 100.246 263.46 100.41C263.475 100.48 263.474 100.552 263.458 100.621C263.442 100.69 263.411 100.756 263.367 100.812C263.323 100.868 263.268 100.914 263.204 100.946C263.141 100.979 263.071 100.997 263 101Z" fill="white"/>
<path d="M260.81 105.12H234.86C234.693 105.114 234.532 105.051 234.405 104.942C234.278 104.833 234.192 104.684 234.16 104.52C234.145 104.447 234.147 104.371 234.165 104.298C234.183 104.225 234.218 104.157 234.266 104.1C234.314 104.042 234.374 103.996 234.442 103.965C234.511 103.934 234.585 103.918 234.66 103.92H260.66C260.827 103.926 260.988 103.989 261.115 104.098C261.242 104.207 261.328 104.356 261.36 104.52C261.377 104.598 261.374 104.679 261.353 104.755C261.332 104.832 261.293 104.903 261.239 104.962C261.186 105.02 261.119 105.065 261.044 105.093C260.969 105.12 260.889 105.13 260.81 105.12Z" fill="white"/>
<path d="M253 109.28H235.55C235.383 109.274 235.222 109.211 235.095 109.102C234.968 108.993 234.882 108.844 234.85 108.68C234.835 108.607 234.836 108.531 234.855 108.459C234.873 108.387 234.908 108.32 234.956 108.263C235.004 108.206 235.065 108.161 235.133 108.131C235.201 108.101 235.275 108.087 235.35 108.09H252.81C252.975 108.097 253.134 108.159 253.26 108.266C253.387 108.373 253.475 108.518 253.51 108.68C253.525 108.754 253.523 108.831 253.504 108.905C253.486 108.978 253.45 109.046 253.401 109.104C253.352 109.162 253.29 109.208 253.221 109.238C253.151 109.269 253.076 109.283 253 109.28Z" fill="white"/>
<path d="M265 113.45H236.24C236.073 113.444 235.912 113.381 235.785 113.272C235.658 113.163 235.572 113.014 235.54 112.85C235.525 112.777 235.527 112.701 235.545 112.628C235.563 112.555 235.598 112.487 235.646 112.43C235.694 112.372 235.754 112.326 235.822 112.295C235.891 112.264 235.965 112.248 236.04 112.25H264.83C264.997 112.256 265.158 112.319 265.285 112.428C265.412 112.537 265.498 112.686 265.53 112.85C265.548 112.926 265.548 113.006 265.528 113.082C265.509 113.158 265.472 113.229 265.42 113.287C265.368 113.346 265.303 113.392 265.23 113.42C265.157 113.448 265.078 113.459 265 113.45Z" fill="white"/>
<path d="M265.72 117.61H236.93C236.763 117.604 236.602 117.541 236.475 117.432C236.348 117.323 236.262 117.174 236.23 117.01C236.215 116.937 236.217 116.861 236.235 116.788C236.253 116.715 236.288 116.647 236.336 116.59C236.384 116.532 236.444 116.486 236.512 116.455C236.581 116.424 236.655 116.408 236.73 116.41H265.53C265.696 116.416 265.855 116.479 265.981 116.589C266.106 116.698 266.191 116.846 266.22 117.01C266.237 117.084 266.237 117.16 266.219 117.234C266.202 117.308 266.167 117.376 266.119 117.434C266.071 117.492 266.009 117.538 265.94 117.569C265.871 117.599 265.796 117.614 265.72 117.61Z" fill="white"/>
<path d="M255.08 121.77H237.62C237.455 121.763 237.296 121.701 237.17 121.594C237.043 121.487 236.955 121.342 236.92 121.18C236.905 121.107 236.907 121.031 236.925 120.958C236.943 120.885 236.978 120.817 237.026 120.76C237.074 120.702 237.134 120.656 237.202 120.625C237.271 120.594 237.345 120.578 237.42 120.58H254.88C255.047 120.586 255.208 120.649 255.335 120.758C255.462 120.867 255.548 121.016 255.58 121.18C255.595 121.253 255.594 121.329 255.575 121.401C255.557 121.473 255.522 121.54 255.474 121.597C255.426 121.654 255.365 121.699 255.297 121.729C255.229 121.759 255.155 121.773 255.08 121.77Z" fill="white"/>
<path d="M271.609 133.219L273.41 134.337L301.046 89.7817L299.245 88.6642L271.609 133.219Z" fill="#263238"/>
<path opacity="0.3" d="M271.609 133.219L273.41 134.337L301.046 89.7817L299.245 88.6642L271.609 133.219Z" fill="black"/>
<path d="M268.013 130.992L269.814 132.109L297.45 87.5543L295.649 86.4369L268.013 130.992Z" fill="#263238"/>
<path opacity="0.3" d="M268.013 130.992L269.814 132.109L297.45 87.5543L295.649 86.4369L268.013 130.992Z" fill="black"/>
<path d="M269.823 132.101L271.625 133.219L299.261 88.6638L297.459 87.5463L269.823 132.101Z" fill="#263238"/>
<path d="M267.97 135.28L269.59 136.29L273.42 134.34L268.02 130.99L267.97 135.28Z" fill="#FF8B7B"/>
<path d="M267.95 137.13L269.59 136.29L267.97 135.28L267.95 137.13Z" fill="#263238"/>
<path d="M267 137.5H266.93C265.59 136.948 264.405 136.076 263.48 134.96C262.899 134.338 262.267 133.766 261.59 133.25C261.488 133.165 261.358 133.118 261.225 133.118C261.092 133.118 260.962 133.165 260.86 133.25C260.778 133.339 260.733 133.455 260.733 133.575C260.733 133.695 260.778 133.811 260.86 133.9C261.1 134.26 261.37 134.6 261.64 134.9C261.749 135.019 261.816 135.17 261.832 135.33C261.848 135.49 261.813 135.652 261.73 135.79C261.643 135.912 261.519 136.002 261.377 136.047C261.234 136.092 261.081 136.089 260.94 136.04C260.56 135.916 260.186 135.772 259.82 135.61C259.788 135.581 259.745 135.566 259.702 135.567C259.659 135.568 259.618 135.586 259.587 135.617C259.556 135.648 259.538 135.689 259.537 135.732C259.536 135.775 259.551 135.818 259.58 135.85L259.63 135.98C259.689 136.112 259.713 136.257 259.699 136.401C259.685 136.544 259.634 136.682 259.55 136.8C259.464 136.913 259.352 137.002 259.222 137.06C259.093 137.118 258.951 137.142 258.81 137.13C254.409 136.922 250 136.939 245.6 137.18C245.534 137.18 245.47 137.154 245.423 137.107C245.376 137.06 245.35 136.996 245.35 136.93C245.35 136.864 245.376 136.8 245.423 136.753C245.47 136.706 245.534 136.68 245.6 136.68C250.016 136.439 254.442 136.422 258.86 136.63C258.916 136.64 258.974 136.633 259.027 136.612C259.08 136.591 259.126 136.556 259.16 136.51C259.19 136.458 259.206 136.4 259.206 136.34C259.206 136.28 259.19 136.222 259.16 136.17L259.11 136.06C259.04 135.933 259.013 135.786 259.034 135.643C259.054 135.499 259.121 135.366 259.223 135.263C259.326 135.161 259.459 135.094 259.603 135.074C259.746 135.053 259.893 135.08 260.02 135.15C260.363 135.312 260.717 135.449 261.08 135.56C261.111 135.584 261.15 135.598 261.19 135.598C261.23 135.598 261.268 135.584 261.3 135.56C261.325 135.513 261.334 135.459 261.325 135.406C261.316 135.354 261.289 135.306 261.25 135.27C260.96 134.93 260.69 134.57 260.44 134.21C260.296 134.023 260.223 133.79 260.234 133.554C260.245 133.318 260.339 133.093 260.5 132.92C260.685 132.748 260.928 132.653 261.18 132.653C261.432 132.653 261.675 132.748 261.86 132.92C262.581 133.446 263.25 134.039 263.86 134.69C264.715 135.691 265.79 136.482 267 137C267.032 137.01 267.061 137.027 267.086 137.048C267.112 137.07 267.132 137.096 267.147 137.126C267.162 137.156 267.171 137.189 267.173 137.222C267.175 137.255 267.171 137.288 267.16 137.32C267.151 137.361 267.131 137.399 267.103 137.431C267.075 137.462 267.04 137.486 267 137.5Z" fill="white"/>
<path d="M262.71 174.14L269.4 162.57H256.03L262.71 174.14Z" fill="#92E3A9"/>
<path d="M337.78 140.16C334.936 137.644 331.234 136.32 327.44 136.46C325.01 131.56 320 128.7 314.7 129.67C307.1 131.06 304.78 140.19 310.06 143.52C311.806 144.626 313.698 145.485 315.68 146.07V146.31C312.575 147.43 309.859 149.422 307.858 152.047C305.857 154.672 304.657 157.819 304.4 161.11C303.62 172.43 315.78 179.05 322.4 172.75C323.316 171.881 324.184 170.963 325 170C326.28 171.8 327.66 173.64 329.15 175.56C345.69 167.94 348.48 149.39 337.78 140.16Z" fill="#263238"/>
<path d="M304.53 184.17C304.43 185.57 304.31 186.79 304.13 188.07C303.95 189.35 303.78 190.59 303.57 191.84C303.15 194.35 302.57 196.84 301.98 199.29C300.763 204.274 299.062 209.127 296.9 213.78L296.69 214.22C296.61 214.39 296.59 214.45 296.44 214.75C296.19 215.245 295.892 215.713 295.55 216.15C294.906 216.942 294.131 217.618 293.26 218.15C291.821 219.008 290.233 219.588 288.58 219.86C285.855 220.279 283.085 220.317 280.35 219.97C275.287 219.349 270.311 218.151 265.52 216.4L266.62 212.4C268.93 212.75 271.34 213.07 273.7 213.28C276.025 213.533 278.362 213.653 280.7 213.64C282.847 213.679 284.99 213.451 287.08 212.96C287.836 212.777 288.552 212.455 289.19 212.01C289.348 211.895 289.481 211.749 289.58 211.58C289.607 211.53 289.627 211.476 289.64 211.42L289.92 210.7C290.34 209.63 290.75 208.55 291.1 207.44C291.45 206.33 291.82 205.23 292.17 204.12C292.8 201.87 293.42 199.62 293.93 197.32C294.44 195.02 294.86 192.72 295.25 190.4C295.64 188.08 295.95 185.68 296.18 183.52L304.53 184.17Z" fill="#FFB573"/>
<path d="M298.84 174.16C295.46 175.01 293.1 188.9 293.1 188.9L302.4 195.22C302.4 195.22 311.32 181.22 308.72 177.51C306 173.64 303.76 172.9 298.84 174.16Z" fill="#263238"/>
<path opacity="0.2" d="M299.14 177.26L296.55 191.25L301.77 194.8L299.14 177.26Z" fill="black"/>
<path d="M263.14 212.58L256.83 215L263.96 219.3C263.96 219.3 268.51 216.67 268.39 213.3L267.69 212.9C267.003 212.512 266.238 212.282 265.451 212.227C264.664 212.171 263.875 212.292 263.14 212.58Z" fill="#FFB573"/>
<path opacity="0.1" d="M262.67 212.89L259.55 214C258.94 214.206 258.343 214.446 257.76 214.72C257.76 214.72 259.82 215.58 260.85 215C262.412 215.118 263.983 215.023 265.52 214.72L262.67 212.89Z" fill="black"/>
<path d="M252.9 219.69L258.27 224.16L263.95 219.34L256.83 215.04L252.9 219.69Z" fill="#FFB573"/>
<path d="M317.09 407.88H308.91L308.36 388.92H316.55L317.09 407.88Z" fill="#FFB573"/>
<path d="M308.63 406.93H317.82C317.98 406.926 318.135 406.981 318.257 407.084C318.378 407.187 318.458 407.332 318.48 407.49L319.48 414.77C319.5 414.953 319.48 415.139 319.424 415.314C319.367 415.49 319.273 415.651 319.15 415.788C319.026 415.925 318.875 416.034 318.706 416.109C318.537 416.183 318.354 416.221 318.17 416.22C314.97 416.17 313.42 415.98 309.37 415.98C306.89 415.98 299.74 416.24 296.3 416.24C292.86 416.24 292.68 412.84 294.11 412.53C300.53 411.15 305.11 409.25 307.22 407.43C307.616 407.102 308.116 406.925 308.63 406.93Z" fill="#263238"/>
<g opacity="0.2">
<path d="M308.36 388.92L308.64 398.7H316.83L316.55 388.92H308.36Z" fill="black"/>
</g>
<path d="M298.84 174.16C298.84 174.16 294.94 175.53 302.75 223.57H336C335.44 210.04 335.43 201.69 341.9 173.92C337.245 172.956 332.526 172.335 327.78 172.06C322.753 171.7 317.707 171.7 312.68 172.06C306.19 172.65 298.84 174.16 298.84 174.16Z" fill="#263238"/>
<path d="M321.74 187.33C318.993 187.248 316.324 186.403 314.03 184.89C314.003 184.872 313.98 184.849 313.963 184.822C313.945 184.795 313.933 184.764 313.928 184.733C313.922 184.701 313.923 184.668 313.93 184.637C313.938 184.606 313.951 184.576 313.97 184.55C313.988 184.522 314.012 184.498 314.039 184.48C314.067 184.461 314.098 184.448 314.13 184.442C314.163 184.435 314.196 184.435 314.229 184.442C314.262 184.448 314.293 184.461 314.32 184.48C316.772 186.087 319.66 186.898 322.59 186.8C323.68 186.11 331.22 181.08 331.79 172.37C331.793 172.337 331.802 172.305 331.816 172.276C331.831 172.246 331.852 172.22 331.877 172.199C331.902 172.177 331.931 172.161 331.963 172.151C331.994 172.141 332.027 172.137 332.06 172.14C332.093 172.143 332.125 172.152 332.154 172.166C332.184 172.181 332.21 172.202 332.231 172.227C332.253 172.252 332.269 172.281 332.279 172.313C332.289 172.344 332.293 172.377 332.29 172.41C331.71 181.32 324.29 186.34 322.8 187.25C322.764 187.26 322.726 187.26 322.69 187.25C322.37 187.32 322.05 187.33 321.74 187.33Z" fill="white"/>
<path d="M307.59 185.79C307.548 185.804 307.502 185.804 307.46 185.79C307.095 185.507 306.797 185.147 306.586 184.735C306.375 184.324 306.257 183.872 306.24 183.41C305.77 180.36 306.9 175.03 309.24 172.27C309.263 172.246 309.291 172.227 309.322 172.213C309.353 172.2 309.386 172.193 309.42 172.193C309.454 172.193 309.487 172.2 309.518 172.213C309.549 172.227 309.577 172.246 309.6 172.27C309.646 172.317 309.671 172.38 309.671 172.445C309.671 172.51 309.646 172.573 309.6 172.62C307.38 175.21 306.23 180.42 306.68 183.36C306.725 184.121 307.057 184.836 307.61 185.36C308.995 185.119 310.34 184.692 311.61 184.09C311.671 184.066 311.739 184.066 311.801 184.09C311.862 184.114 311.912 184.161 311.94 184.22C311.953 184.25 311.96 184.283 311.961 184.316C311.962 184.349 311.956 184.381 311.944 184.412C311.932 184.443 311.914 184.471 311.891 184.494C311.868 184.518 311.84 184.537 311.81 184.55C310.469 185.161 309.048 185.579 307.59 185.79Z" fill="white"/>
<path d="M326.28 155.06C325.33 159.91 324.38 168.82 327.78 172.06C327.78 172.06 326.45 176.99 317.42 176.99C307.49 176.99 312.68 172.06 312.68 172.06C318.09 170.76 317.95 166.74 317.01 162.97L326.28 155.06Z" fill="#FFB573"/>
<path d="M327.77 172.06C322.743 171.7 317.697 171.7 312.67 172.06L311.67 172.16C310.46 174.44 310.16 177.95 313.05 183.16C313.05 183.16 326.29 177.82 329.74 172.24C329.1 172.14 328.44 172.09 327.77 172.06Z" fill="#FFB573"/>
<path opacity="0.2" d="M322.5 158.29L317 163C317.238 163.877 317.395 164.774 317.47 165.68C319.54 165.38 322.38 163.11 322.6 160.94C322.732 160.058 322.698 159.159 322.5 158.29Z" fill="black"/>
<path d="M331.52 146.64C329.67 154.55 329.05 157.94 324.31 161.35C317.19 166.49 307.88 162.49 307.31 154.18C306.81 146.71 309.93 135.02 318.31 133.18C320.153 132.764 322.071 132.827 323.883 133.36C325.695 133.894 327.341 134.882 328.664 136.23C329.987 137.579 330.944 139.243 331.444 141.064C331.944 142.886 331.97 144.805 331.52 146.64Z" fill="#FFB573"/>
<path d="M302.75 223.57C302.75 223.57 296.29 286.64 296.83 311.57C297.39 337.57 306.9 396.76 306.9 396.76H318C318 396.76 316.25 339.05 317.23 313.55C318.3 285.74 327.13 223.55 327.13 223.55L302.75 223.57Z" fill="#92E3A9"/>
<path opacity="0.3" d="M302.75 223.57C302.75 223.57 296.29 286.64 296.83 311.57C297.39 337.57 306.9 396.76 306.9 396.76H318C318 396.76 316.25 339.05 317.23 313.55C318.3 285.74 327.13 223.55 327.13 223.55L302.75 223.57Z" fill="white"/>
<path d="M318.93 397.2H305.94L304.99 393.06L319.54 392.55L318.93 397.2Z" fill="#263238"/>
<path opacity="0.2" d="M317.09 239.26C308.93 255.69 315.45 285.66 318.34 296.81C319.82 280.07 322.34 259.59 324.27 244.56C323 236.06 320.86 231.69 317.09 239.26Z" fill="black"/>
<path d="M355.36 407.88H347.17L344.17 388.92H352.35L355.36 407.88Z" fill="#FFB573"/>
<path d="M346.77 406.93H356C356.164 406.933 356.324 406.989 356.453 407.09C356.583 407.191 356.677 407.331 356.72 407.49L358.72 414.77C358.769 414.942 358.776 415.124 358.742 415.299C358.708 415.475 358.632 415.64 358.522 415.781C358.412 415.922 358.271 416.036 358.109 416.112C357.947 416.188 357.769 416.225 357.59 416.22C354.38 416.17 352.81 415.98 348.76 415.98C346.27 415.98 339.16 416.24 335.76 416.24C332.36 416.24 331.7 412.84 333.09 412.53C339.33 411.15 343.61 409.25 345.54 407.43C345.877 407.121 346.313 406.943 346.77 406.93Z" fill="#263238"/>
<g opacity="0.2">
<path d="M344.17 388.92L345.72 398.7H353.91L352.36 388.92H344.17Z" fill="black"/>
</g>
<path d="M312 223.57C312 223.57 318.87 286.64 322.65 311.57C326.58 337.57 343.78 396.76 343.78 396.76H354.8C354.8 396.76 345.56 339.05 343.23 313.55C340.69 285.74 336.3 223.55 336.3 223.55L312 223.57Z" fill="#92E3A9"/>
<path opacity="0.3" d="M312 223.57C312 223.57 318.87 286.64 322.65 311.57C326.58 337.57 343.78 396.76 343.78 396.76H354.8C354.8 396.76 345.56 339.05 343.23 313.55C340.69 285.74 336.3 223.55 336.3 223.55L312 223.57Z" fill="white"/>
<path d="M355.81 397.2H342.82L341.33 393.06L355.81 392.55V397.2Z" fill="#263238"/>
<path d="M343.88 408.36C343.161 408.418 342.442 408.242 341.83 407.86C341.685 407.748 341.567 407.604 341.485 407.439C341.404 407.275 341.361 407.094 341.36 406.91C341.349 406.809 341.367 406.707 341.414 406.616C341.46 406.525 341.531 406.45 341.62 406.4C342.55 405.85 346.03 407.51 346.42 407.71C346.459 407.726 346.493 407.754 346.516 407.79C346.539 407.825 346.551 407.867 346.55 407.91C346.551 407.948 346.538 407.984 346.514 408.014C346.49 408.043 346.457 408.063 346.42 408.07C345.585 408.248 344.734 408.345 343.88 408.36ZM342.2 406.67C342.079 406.662 341.958 406.686 341.85 406.74C341.814 406.76 341.784 406.791 341.766 406.829C341.748 406.867 341.743 406.909 341.75 406.95C341.751 407.069 341.779 407.186 341.831 407.293C341.883 407.401 341.957 407.495 342.05 407.57C342.61 408.02 343.96 408.09 345.74 407.79C344.627 407.23 343.432 406.852 342.2 406.67Z" fill="#92E3A9"/>
<path d="M346.38 408.07H346.3C345.3 407.62 343.11 405.86 343.14 404.93C343.14 404.71 343.27 404.44 343.8 404.38C344.2 404.346 344.598 404.468 344.91 404.72C345.747 405.591 346.317 406.684 346.55 407.87C346.557 407.903 346.555 407.936 346.544 407.968C346.534 408 346.515 408.028 346.49 408.05C346.456 408.067 346.418 408.074 346.38 408.07ZM344 404.75H343.89C343.54 404.75 343.53 404.93 343.53 404.97C343.53 405.53 345 406.92 346.07 407.52C345.864 406.566 345.388 405.692 344.7 405C344.502 404.84 344.255 404.752 344 404.75Z" fill="#92E3A9"/>
<path d="M318.41 146.59C318.3 147.24 317.86 147.71 317.41 147.59C316.96 147.47 316.72 146.93 316.84 146.28C316.96 145.63 317.38 145.16 317.84 145.23C318.3 145.3 318.52 145.94 318.41 146.59Z" fill="#263238"/>
<path d="M311.05 145.34C310.94 145.99 310.5 146.46 310.05 146.34C309.6 146.22 309.37 145.69 309.48 145.03C309.59 144.37 310.02 143.91 310.48 144.03C310.94 144.15 311.16 144.69 311.05 145.34Z" fill="#263238"/>
<path d="M310.66 144.1L309.17 143.38C309.17 143.38 309.77 144.74 310.66 144.1Z" fill="#263238"/>
<path d="M313.12 146.9C312.296 148.284 311.287 149.549 310.12 150.66C310.413 150.952 310.766 151.177 311.155 151.32C311.543 151.464 311.957 151.521 312.37 151.49L313.12 146.9Z" fill="#ED893E"/>
<path d="M315.45 154.64C315.115 154.64 314.78 154.61 314.45 154.55C314.425 154.546 314.401 154.538 314.379 154.525C314.357 154.512 314.339 154.494 314.324 154.474C314.309 154.453 314.298 154.43 314.292 154.405C314.287 154.381 314.286 154.355 314.29 154.33C314.3 154.279 314.329 154.233 314.372 154.203C314.415 154.173 314.468 154.161 314.52 154.17C315.326 154.325 316.156 154.287 316.945 154.062C317.734 153.836 318.458 153.428 319.06 152.87C319.078 152.851 319.099 152.835 319.124 152.825C319.148 152.814 319.174 152.808 319.2 152.808C319.226 152.808 319.252 152.814 319.276 152.825C319.301 152.835 319.322 152.851 319.34 152.87C319.358 152.888 319.372 152.909 319.382 152.932C319.391 152.955 319.396 152.98 319.396 153.005C319.396 153.03 319.391 153.055 319.382 153.078C319.372 153.101 319.358 153.122 319.34 153.14C318.293 154.135 316.894 154.674 315.45 154.64Z" fill="#263238"/>
<path d="M335.38 134.32C334.441 133.661 333.375 133.205 332.25 132.98C331.34 125.18 325.09 120.22 318.12 121.79C310.22 123.57 307.47 133.37 312.78 136.71C315.903 138.619 319.432 139.766 323.08 140.06C323.22 146.53 327.25 152.06 330.08 152.36C338.16 149.14 340.25 137.75 335.38 134.32Z" fill="#263238"/>
<path d="M332.44 154.34C331.643 155.694 330.347 156.681 328.83 157.09C326.83 157.6 325.83 155.79 326.45 153.91C326.98 152.22 328.68 149.91 330.69 150.22C331.127 150.3 331.536 150.487 331.883 150.764C332.229 151.041 332.501 151.4 332.675 151.809C332.848 152.217 332.918 152.662 332.877 153.104C332.836 153.546 332.686 153.97 332.44 154.34Z" fill="#FFB573"/>
<path d="M321.62 145.59C321.538 145.59 321.458 145.564 321.391 145.515C321.325 145.467 321.275 145.398 321.25 145.32C320.72 143.61 318.53 142.87 318.51 142.87C318.412 142.838 318.331 142.768 318.284 142.677C318.237 142.585 318.228 142.478 318.26 142.38C318.275 142.331 318.299 142.285 318.332 142.245C318.365 142.206 318.406 142.173 318.451 142.15C318.497 142.127 318.547 142.113 318.599 142.109C318.65 142.106 318.701 142.113 318.75 142.13C318.85 142.13 321.35 143 321.99 145.13C322.022 145.228 322.013 145.335 321.966 145.427C321.919 145.518 321.838 145.588 321.74 145.62L321.62 145.59Z" fill="#263238"/>
<path d="M309.42 141.56C309.352 141.56 309.285 141.542 309.225 141.509C309.166 141.476 309.116 141.428 309.08 141.37C309.03 141.28 309.017 141.173 309.045 141.074C309.074 140.975 309.14 140.89 309.23 140.84C309.757 140.521 310.352 140.333 310.966 140.292C311.58 140.25 312.195 140.356 312.76 140.6C312.838 140.653 312.895 140.733 312.919 140.825C312.942 140.917 312.932 141.014 312.889 141.099C312.846 141.184 312.773 141.25 312.685 141.285C312.597 141.32 312.499 141.322 312.41 141.29C311.959 141.105 311.47 141.029 310.984 141.067C310.498 141.105 310.027 141.257 309.61 141.51C309.553 141.545 309.487 141.562 309.42 141.56Z" fill="#263238"/>
<path d="M345.72 183.45C346.72 188.16 347.38 192.79 347.94 197.52C348.531 202.268 348.865 207.045 348.94 211.83C348.94 212.07 348.94 212.57 348.94 213.01C348.94 213.45 348.87 213.81 348.82 214.18C348.7 214.91 348.57 215.59 348.4 216.18C348.08 217.46 347.7 218.65 347.3 219.82C346.5 222.15 345.55 224.36 344.59 226.54C342.634 230.864 340.461 235.086 338.08 239.19L334.32 237.44L336.55 230.86C337.3 228.68 338.02 226.48 338.69 224.29C339.36 222.1 340.01 219.93 340.57 217.79C340.84 216.72 341.07 215.66 341.23 214.66C341.31 214.16 341.37 213.66 341.41 213.26C341.41 213.05 341.41 212.86 341.41 212.69L341.36 212.12C341.18 209.88 340.92 207.63 340.65 205.37L339.71 198.57C339.02 194.05 338.25 189.47 337.48 185L345.72 183.45Z" fill="#FFB573"/>
<path d="M341.9 173.92C345.23 174.92 349.23 186.4 349.23 186.4L336.3 195.64C336.3 195.64 331.59 186.07 332.99 181.76C334.45 177.28 338.09 172.76 341.9 173.92Z" fill="#263238"/>
<path d="M305.55 408.36C304.845 408.431 304.138 408.254 303.55 407.86C303.417 407.743 303.315 407.595 303.254 407.429C303.193 407.264 303.174 407.085 303.2 406.91C303.205 406.805 303.237 406.702 303.293 406.613C303.349 406.523 303.427 406.45 303.52 406.4C304.52 405.85 307.79 407.51 308.16 407.71C308.196 407.728 308.225 407.758 308.243 407.794C308.26 407.83 308.267 407.87 308.26 407.91C308.255 407.949 308.237 407.985 308.21 408.014C308.184 408.042 308.148 408.062 308.11 408.07C307.267 408.246 306.41 408.343 305.55 408.36ZM304.09 406.67C303.966 406.663 303.842 406.687 303.73 406.74C303.691 406.76 303.659 406.79 303.636 406.827C303.613 406.864 303.601 406.907 303.6 406.95C303.585 407.063 303.597 407.179 303.635 407.287C303.673 407.394 303.737 407.492 303.82 407.57C304.32 408.02 305.67 408.09 307.48 407.79C306.423 407.225 305.276 406.846 304.09 406.67Z" fill="#92E3A9"/>
<path d="M308.09 408.07H308C307 407.62 305.09 405.86 305.25 404.93C305.25 404.71 305.44 404.44 305.97 404.38C306.164 404.361 306.359 404.381 306.545 404.439C306.73 404.498 306.902 404.593 307.05 404.72C308.05 405.58 308.27 407.78 308.27 407.87C308.276 407.905 308.271 407.94 308.257 407.972C308.243 408.004 308.219 408.031 308.19 408.05C308.159 408.065 308.124 408.072 308.09 408.07ZM306.14 404.75H306C305.65 404.75 305.63 404.93 305.62 404.97C305.53 405.53 306.84 406.92 307.83 407.52C307.766 406.597 307.416 405.716 306.83 405C306.64 404.832 306.393 404.743 306.14 404.75Z" fill="#92E3A9"/>
<path d="M318 145.35L316.51 144.63C316.51 144.63 317.13 146 318 145.35Z" fill="#263238"/>
<path d="M336.5 221.62L337.35 224.62C337.47 224.86 337.19 225.09 336.81 225.09H302.58C302.28 225.09 302.04 224.94 302.02 224.76L301.72 221.76C301.72 221.55 301.96 221.38 302.28 221.38H336C336.096 221.378 336.192 221.398 336.279 221.44C336.366 221.482 336.442 221.543 336.5 221.62Z" fill="#92E3A9"/>
<path d="M332 225.38H332.9C333.08 225.38 333.21 225.29 333.2 225.18L332.78 221.31C332.78 221.2 332.61 221.1 332.43 221.1H331.53C331.35 221.1 331.21 221.2 331.22 221.31L331.65 225.18C331.64 225.29 331.8 225.38 332 225.38Z" fill="#92E3A9"/>
<g opacity="0.3">
<path d="M332 225.38H332.9C333.08 225.38 333.21 225.29 333.2 225.18L332.78 221.31C332.78 221.2 332.61 221.1 332.43 221.1H331.53C331.35 221.1 331.21 221.2 331.22 221.31L331.65 225.18C331.64 225.29 331.8 225.38 332 225.38Z" fill="white"/>
</g>
<path d="M305.12 225.38H306.02C306.2 225.38 306.34 225.29 306.33 225.18L305.9 221.31C305.9 221.2 305.73 221.1 305.55 221.1H304.65C304.47 221.1 304.33 221.2 304.35 221.31L304.77 225.18C304.78 225.29 304.94 225.38 305.12 225.38Z" fill="#92E3A9"/>
<path opacity="0.3" d="M305.12 225.38H306.02C306.2 225.38 306.34 225.29 306.33 225.18L305.9 221.31C305.9 221.2 305.73 221.1 305.55 221.1H304.65C304.47 221.1 304.33 221.2 304.35 221.31L304.77 225.18C304.78 225.29 304.94 225.38 305.12 225.38Z" fill="white"/>
<path d="M318.55 225.38H319.45C319.63 225.38 319.77 225.29 319.75 225.18L319.33 221.31C319.33 221.2 319.16 221.1 318.98 221.1H318.08C317.9 221.1 317.76 221.2 317.78 221.31L318.2 225.18C318.21 225.29 318.37 225.38 318.55 225.38Z" fill="#92E3A9"/>
<path opacity="0.3" d="M318.55 225.38H319.45C319.63 225.38 319.77 225.29 319.75 225.18L319.33 221.31C319.33 221.2 319.16 221.1 318.98 221.1H318.08C317.9 221.1 317.76 221.2 317.78 221.31L318.2 225.18C318.21 225.29 318.37 225.38 318.55 225.38Z" fill="white"/>
<path d="M334.47 236.7L328.12 242.86L336.4 243.69C336.4 243.69 339.4 239.36 337.83 236.34L334.47 236.7Z" fill="#FFB573"/>
<path d="M327.18 249.68L334.16 250L336.4 243.69L328.12 242.86L327.18 249.68Z" fill="#FFB573"/>
<path d="M165.3 409.11C166.089 409.202 166.884 409.007 167.54 408.56C167.631 408.458 167.689 408.331 167.707 408.195C167.725 408.06 167.702 407.922 167.64 407.8C167.595 407.699 167.527 407.61 167.442 407.539C167.357 407.467 167.257 407.417 167.15 407.39C165.97 407.06 163.15 408.52 163.07 408.59C163.036 408.606 163.007 408.631 162.988 408.663C162.968 408.695 162.958 408.732 162.96 408.77C162.962 408.803 162.974 408.835 162.996 408.861C163.018 408.886 163.047 408.903 163.08 408.91C163.813 409.042 164.556 409.109 165.3 409.11ZM166.68 407.69C166.789 407.674 166.901 407.674 167.01 407.69C167.075 407.703 167.137 407.732 167.189 407.774C167.241 407.815 167.283 407.869 167.31 407.93C167.4 408.15 167.31 408.26 167.31 408.32C166.9 408.79 165.04 408.8 163.7 408.61C164.632 408.131 165.64 407.82 166.68 407.69Z" fill="#92E3A9"/>
<path d="M163.11 408.91H163.19C164.13 408.51 166.12 406.91 166.11 406.09C166.11 405.89 166 405.65 165.53 405.6C165.171 405.575 164.816 405.682 164.53 405.9C163.76 406.68 163.223 407.661 162.98 408.73C162.97 408.758 162.969 408.789 162.978 408.818C162.987 408.847 163.006 408.872 163.03 408.89C163.054 408.905 163.082 408.911 163.11 408.91ZM165.34 405.91H165.45C165.75 405.91 165.76 406.06 165.76 406.1C165.76 406.6 164.39 407.85 163.4 408.39C163.622 407.533 164.071 406.752 164.7 406.13C164.887 405.998 165.111 405.928 165.34 405.93V405.91Z" fill="#92E3A9"/>
<path d="M155.06 408.74H162.41L165.64 391.72H158.29L155.06 408.74Z" fill="#B55B52"/>
<path d="M162.48 407.89H154.48C154.327 407.896 154.179 407.946 154.055 408.035C153.93 408.124 153.835 408.247 153.78 408.39L151.37 414.92C151.303 415.062 151.273 415.218 151.284 415.375C151.295 415.531 151.346 415.682 151.433 415.813C151.519 415.944 151.638 416.05 151.778 416.121C151.918 416.193 152.073 416.227 152.23 416.22C155.14 416.22 159.34 416.01 162.98 416.01C167.23 416.01 166.84 416.24 171.83 416.24C174.83 416.24 176.13 413.19 174.91 412.91C169.35 411.66 168.7 411.52 164.19 408.46C163.692 408.099 163.095 407.9 162.48 407.89Z" fill="#263238"/>
<path opacity="0.2" d="M165.64 391.73L163.97 400.5H156.62L158.29 391.73H165.64Z" fill="black"/>
<path d="M166.19 225.45L171 230.5L163.24 233.21C163.24 233.21 160.42 229.09 162.59 226.27L166.19 225.45Z" fill="#B55B52"/>
<path d="M172.44 237.56L164.76 238.68L163.24 233.21L171 230.5L172.44 237.56Z" fill="#B55B52"/>
<path d="M137.36 267.36L174.84 269C175.721 269.014 176.579 268.722 177.27 268.176C177.961 267.629 178.441 266.86 178.63 266L183.11 243.1C183.203 242.712 183.208 242.308 183.123 241.918C183.039 241.528 182.868 241.162 182.623 240.847C182.378 240.532 182.066 240.276 181.709 240.098C181.352 239.921 180.959 239.825 180.56 239.82L143.08 238.17C142.201 238.159 141.345 238.451 140.656 238.998C139.968 239.544 139.489 240.311 139.3 241.17L134.81 264.07C134.715 264.459 134.709 264.864 134.793 265.255C134.876 265.646 135.047 266.014 135.292 266.33C135.537 266.646 135.85 266.903 136.208 267.081C136.566 267.26 136.96 267.355 137.36 267.36Z" fill="#263238"/>
<path d="M139.93 274.4L186.23 276.4C187.28 276.44 188.306 276.075 189.095 275.381C189.884 274.687 190.376 273.717 190.47 272.67L192.92 244.25C192.97 243.745 192.915 243.235 192.76 242.752C192.604 242.269 192.351 241.823 192.017 241.442C191.682 241.06 191.273 240.751 190.814 240.534C190.355 240.317 189.857 240.197 189.35 240.18L143.06 238.18C142.01 238.145 140.986 238.511 140.197 239.204C139.407 239.897 138.911 240.864 138.81 241.91L136.36 270.33C136.312 270.835 136.368 271.344 136.524 271.826C136.679 272.309 136.932 272.754 137.267 273.135C137.601 273.517 138.01 273.825 138.468 274.043C138.926 274.26 139.423 274.382 139.93 274.4Z" fill="#92E3A9"/>
<path opacity="0.2" d="M139.93 274.4L186.23 276.4C187.28 276.44 188.306 276.075 189.095 275.381C189.884 274.687 190.376 273.717 190.47 272.67L192.92 244.25C192.97 243.745 192.915 243.235 192.76 242.752C192.604 242.269 192.351 241.823 192.017 241.442C191.682 241.06 191.273 240.751 190.814 240.534C190.355 240.317 189.857 240.197 189.35 240.18L143.06 238.18C142.01 238.145 140.986 238.511 140.197 239.204C139.407 239.897 138.911 240.864 138.81 241.91L136.36 270.33C136.312 270.835 136.368 271.344 136.524 271.826C136.679 272.309 136.932 272.754 137.267 273.135C137.601 273.517 138.01 273.825 138.468 274.043C138.926 274.26 139.423 274.382 139.93 274.4Z" fill="black"/>
<path d="M173.9 247.71H173.78L160.34 247.12C159.99 247.108 159.646 247.024 159.329 246.874C159.012 246.725 158.73 246.511 158.498 246.248C158.267 245.985 158.092 245.677 157.984 245.344C157.876 245.011 157.837 244.659 157.87 244.31L158.4 238.18C158.531 236.927 159.13 235.769 160.077 234.938C161.024 234.108 162.25 233.665 163.51 233.7L172.51 234.09C173.16 234.116 173.799 234.274 174.386 234.554C174.974 234.834 175.498 235.231 175.927 235.72C176.357 236.209 176.682 236.781 176.884 237.399C177.085 238.018 177.159 238.672 177.1 239.32L176.59 245.26C176.523 245.928 176.212 246.549 175.715 247.001C175.218 247.453 174.572 247.706 173.9 247.71ZM160.9 244.13L173.61 244.69L174.1 239.05C174.128 238.803 174.104 238.553 174.031 238.316C173.957 238.079 173.835 237.859 173.673 237.671C173.51 237.484 173.311 237.331 173.086 237.224C172.862 237.117 172.618 237.058 172.37 237.05L163.37 236.65C162.88 236.646 162.406 236.822 162.037 237.145C161.669 237.467 161.431 237.914 161.37 238.4L160.9 244.13Z" fill="#92E3A9"/>
<path d="M191.18 276.65L144.89 274.65C143.832 274.588 142.835 274.134 142.096 273.375C141.356 272.617 140.926 271.609 140.89 270.55L140.27 242C140.25 241.496 140.335 240.993 140.521 240.525C140.706 240.056 140.988 239.631 141.348 239.278C141.708 238.924 142.138 238.65 142.61 238.473C143.082 238.296 143.587 238.22 144.09 238.25L190.39 240.25C191.449 240.309 192.447 240.763 193.187 241.522C193.927 242.281 194.357 243.29 194.39 244.35L195 272.9C195.019 273.403 194.932 273.905 194.746 274.374C194.56 274.842 194.278 275.266 193.918 275.619C193.559 275.972 193.13 276.246 192.658 276.424C192.186 276.601 191.683 276.678 191.18 276.65Z" fill="#92E3A9"/>
<path d="M177.47 169.52C176.98 170.52 176.4 171.66 175.88 172.75C175.36 173.84 174.88 175 174.33 176.13C173.33 178.4 172.33 180.68 171.47 182.97C170.61 185.26 169.81 187.57 169.1 189.86C168.77 191.01 168.43 192.15 168.18 193.28C168.03 193.85 167.9 194.42 167.8 194.97L167.64 195.81C167.58 196.1 167.52 196.39 167.5 196.59C167.5 197.03 167.38 197.43 167.36 198.02C167.34 198.61 167.29 199.09 167.29 199.7C167.29 200.87 167.29 202.1 167.29 203.33C167.34 205.82 167.49 208.33 167.64 210.91C167.93 216.02 168.36 221.21 168.76 226.33L159.6 227.81C158.36 222.6 157.38 217.44 156.5 212.15C156.08 209.51 155.72 206.85 155.42 204.15C155.28 202.77 155.14 201.4 155.07 199.95C155.01 199.26 155 198.48 154.99 197.72C154.98 196.96 154.99 196.1 155.08 195.24C155.1 194.848 155.14 194.458 155.2 194.07L155.34 192.97C155.42 192.23 155.53 191.51 155.66 190.81C155.9 189.37 156.2 187.98 156.5 186.59C157.15 183.84 157.89 181.13 158.77 178.51C159.65 175.89 160.58 173.29 161.62 170.75C162.14 169.48 162.62 168.22 163.24 166.96C163.86 165.7 164.35 164.5 165.04 163.12L177.47 169.52Z" fill="#92E3A9"/>
<path d="M197.51 221.87C197.51 221.87 190.44 276.8 186.35 299.2C182.09 322.5 167 398.8 167 398.8H154.51C154.51 398.8 160.85 323.86 163.66 300.98C166.73 275.98 171.66 221.87 171.66 221.87H197.51Z" fill="#263238"/>
<path d="M170.08 393.84C170.14 393.84 168.62 399.01 168.62 399.01H153.48L153.75 394.4L170.08 393.84Z" fill="#92E3A9"/>
<path d="M203.53 130.65C203.53 131.27 203.86 131.78 204.27 131.78C204.68 131.78 205 131.27 205 130.65C205 130.03 204.67 129.53 204.27 129.53C203.87 129.53 203.53 130 203.53 130.65Z" fill="#263238"/>
<path d="M203.8 131.78C204.551 133.683 205.561 135.473 206.8 137.1C206.371 137.407 205.881 137.617 205.362 137.714C204.844 137.81 204.311 137.792 203.8 137.66V131.78Z" fill="#A02724"/>
<path d="M201.33 127.2C201.404 127.2 201.477 127.18 201.54 127.14C201.904 126.858 202.329 126.668 202.782 126.584C203.234 126.5 203.7 126.527 204.14 126.66C204.23 126.693 204.33 126.689 204.418 126.65C204.505 126.611 204.574 126.539 204.61 126.45C204.628 126.405 204.636 126.358 204.635 126.31C204.634 126.262 204.623 126.215 204.604 126.171C204.584 126.127 204.556 126.088 204.521 126.055C204.486 126.022 204.445 125.997 204.4 125.98C203.847 125.802 203.259 125.759 202.686 125.857C202.114 125.954 201.573 126.189 201.11 126.54C201.033 126.598 200.981 126.683 200.966 126.779C200.951 126.874 200.974 126.971 201.03 127.05C201.064 127.097 201.109 127.136 201.161 127.162C201.214 127.188 201.272 127.201 201.33 127.2Z" fill="#263238"/>
<path d="M183.84 137.52C184.84 142.9 185.94 152.75 182.18 156.33C182.18 156.33 183.65 161.78 193.64 161.78C204.64 161.78 198.88 156.33 198.88 156.33C192.88 154.9 193.05 150.46 194.09 146.28L183.84 137.52Z" fill="#B55B52"/>
<path d="M180.74 158.2C179.96 156.48 179.09 154.5 180.88 153.88C182.88 153.2 193.65 152.51 197.37 153.79C197.861 153.926 198.32 154.158 198.72 154.473C199.12 154.787 199.454 155.178 199.703 155.623C199.951 156.067 200.109 156.557 200.167 157.063C200.225 157.568 200.181 158.081 200.04 158.57L180.74 158.2Z" fill="#263238"/>
<path d="M167.71 158.44C161.28 161.36 157.28 183.5 157.28 183.5L169.89 187.5C172.367 181.654 174.426 175.638 176.05 169.5C178.34 160.26 174.29 155.46 167.71 158.44Z" fill="#92E3A9"/>
<path d="M246 213.26H253.76L252.4 222.54C252.4 222.54 246.32 222.32 243.56 217.74L246 213.26Z" fill="#B55B52"/>
<path d="M261.06 216.49L257.16 223.66L252.36 222.56L253.72 213.28L261.06 216.49Z" fill="#B55B52"/>
<path d="M182.78 129.33C183.25 136.97 183.14 141.47 187 145.39C192.8 151.29 202.23 147.79 204.05 140.16C205.7 133.3 204.65 121.96 197.17 118.92C195.525 118.242 193.734 117.996 191.967 118.205C190.199 118.414 188.515 119.071 187.073 120.114C185.632 121.157 184.48 122.551 183.729 124.164C182.978 125.777 182.651 127.555 182.78 129.33Z" fill="#B55B52"/>
<path d="M181.9 139.72C181.9 139.72 174.98 129.34 176.48 122.57C177.85 116.38 191.82 114.17 197.62 114.79C203.78 115.46 206.18 118.11 202.8 123.45C200.805 124.395 198.708 125.107 196.55 125.57C196.55 125.57 199.98 129.78 200.01 132.57C199.01 133.09 195.92 134.33 195.92 134.33C195.92 134.33 191.54 145.14 191.41 145.12C189.72 144.92 185.81 144.86 184.41 145.39C183.418 143.573 182.579 141.676 181.9 139.72Z" fill="#263238"/>
<path d="M192.89 133.21C193.394 135.037 194.483 136.65 195.99 137.8C197.99 139.3 199.48 137.88 199.33 135.63C199.2 133.63 198 130.4 195.8 129.77C193.6 129.14 192.31 131 192.89 133.21Z" fill="#B55B52"/>
<path opacity="0.3" d="M192.21 242.4C182.38 244.68 184.21 280.24 186.1 300.51C186.19 300.05 186.26 299.62 186.34 299.2C188.78 285.86 192.27 261 194.7 243.06C193.943 242.623 193.084 242.395 192.21 242.4Z" fill="black"/>
<path d="M201.72 409.11C202.66 409.11 203.57 408.98 203.88 408.56C203.96 408.449 204.003 408.316 204.003 408.18C204.003 408.044 203.96 407.911 203.88 407.8C203.821 407.698 203.742 407.609 203.647 407.538C203.553 407.468 203.445 407.417 203.33 407.39C202.11 407.06 199.54 408.52 199.43 408.59C199.4 408.608 199.376 408.635 199.361 408.667C199.347 408.699 199.343 408.735 199.35 408.77C199.357 408.804 199.374 408.836 199.399 408.861C199.424 408.886 199.456 408.903 199.49 408.91C200.226 409.039 200.972 409.106 201.72 409.11ZM202.89 407.69C202.999 407.674 203.111 407.674 203.22 407.69C203.29 407.704 203.357 407.732 203.416 407.774C203.474 407.815 203.523 407.868 203.56 407.93C203.69 408.15 203.64 408.26 203.56 408.32C203.22 408.79 201.36 408.8 199.99 408.61C200.888 408.118 201.873 407.805 202.89 407.69Z" fill="#92E3A9"/>
<path d="M199.5 408.91H199.57C200.46 408.51 202.22 406.91 202.08 406.09C202.08 405.89 201.91 405.65 201.43 405.6C201.252 405.578 201.071 405.594 200.899 405.645C200.726 405.697 200.567 405.784 200.43 405.9C199.49 406.67 199.3 408.65 199.29 408.73C199.286 408.761 199.291 408.792 199.303 408.82C199.315 408.848 199.335 408.872 199.36 408.89C199.402 408.914 199.453 408.922 199.5 408.91ZM201.29 405.91H201.4C201.71 405.91 201.73 406.06 201.74 406.1C201.82 406.6 200.62 407.85 199.74 408.39C199.832 407.551 200.181 406.762 200.74 406.13C200.897 406.005 201.09 405.935 201.29 405.93V405.91Z" fill="#92E3A9"/>
<path d="M191.42 408.74H198.77L199.5 391.72H192.16L191.42 408.74Z" fill="#B55B52"/>
<path d="M198.72 407.89H190.72C190.574 407.891 190.433 407.94 190.318 408.031C190.204 408.122 190.124 408.248 190.09 408.39L188.64 414.92C188.605 415.078 188.607 415.241 188.644 415.398C188.681 415.555 188.754 415.701 188.856 415.826C188.958 415.951 189.087 416.052 189.233 416.12C189.379 416.188 189.539 416.222 189.7 416.22C192.59 416.22 196.77 416.01 200.41 416.01C204.67 416.01 208.34 416.24 213.33 416.24C216.33 416.24 217.18 413.19 215.92 412.91C210.17 411.66 205.48 411.52 200.51 408.46C199.978 408.106 199.358 407.909 198.72 407.89Z" fill="#263238"/>
<path opacity="0.2" d="M199.5 391.73L199.12 400.5H191.77L192.15 391.73H199.5Z" fill="black"/>
<path d="M210.62 221.87C210.62 221.87 211.62 276.8 210.83 299.2C210 322.5 201.83 398.8 201.83 398.8H189.42C189.42 398.8 188.96 323.86 188.42 300.98C187.81 275.98 184.8 221.87 184.8 221.87H210.62Z" fill="#263238"/>
<path d="M204.26 393.84C204.31 393.84 203.55 399.01 203.55 399.01H188.42L188 394.4L204.26 393.84Z" fill="#92E3A9"/>
<path d="M210.18 158.37C210.18 158.37 219 171.81 211.61 226.48H170.11C169.84 220.48 174.85 186.41 169.03 157.99C173.373 157.154 177.765 156.599 182.18 156.33C187.742 156.01 193.318 156.01 198.88 156.33C202.694 156.714 206.472 157.396 210.18 158.37Z" fill="#92E3A9"/>
<path opacity="0.2" d="M214.56 186.34L205.86 171.92C205.86 171.92 209.13 192.36 214.14 201.58C214.48 195.81 214.6 190.75 214.56 186.34Z" fill="black"/>
<path d="M218.27 168.89C219.7 173.46 221.27 178.14 222.88 182.72C224.49 187.3 226.17 191.85 228.01 196.22L228.71 197.84C228.77 197.96 228.824 198.084 228.87 198.21C228.911 198.303 228.958 198.393 229.01 198.48C229.454 199.142 229.97 199.753 230.55 200.3C232.128 201.769 233.824 203.107 235.62 204.3C237.5 205.6 239.49 206.86 241.54 208.05C243.59 209.24 245.71 210.46 247.73 211.51L243.84 220.59C238.918 218.784 234.14 216.604 229.55 214.07C227.093 212.699 224.752 211.13 222.55 209.38C221.237 208.322 220.047 207.121 219 205.8C218.7 205.37 218.41 204.99 218.12 204.51C217.83 204.03 217.51 203.43 217.42 203.23L216.54 201.48C214.25 196.82 212.2 192.16 210.31 187.48C208.42 182.8 206.66 178.09 204.97 173.22L218.27 168.89Z" fill="#92E3A9"/>
<path d="M200.38 161.69C197.81 168.23 213.44 194.56 213.44 194.56L223.61 184.83C223.61 184.83 221.39 176.56 218.43 166.6C215.51 156.81 202.83 155.44 200.38 161.69Z" fill="#92E3A9"/>
</svg>
